<svg xmlns="http://www.w3.org/2000/svg"  viewBox="0 0 64 64" width="64px" height="64px"><radialGradient id="7xfULB1DgBbjL0moiiHiHa" cx="30.367" cy="31.807" r="19.951" gradientTransform="matrix(1 0 0 -1 0 64)" gradientUnits="userSpaceOnUse"><stop offset=".167" stop-color="#f6e6c1"/><stop offset=".73" stop-color="#faedd0"/><stop offset="1" stop-color="#fdf0d5"/></radialGradient><path fill="url(#7xfULB1DgBbjL0moiiHiHa)" d="M60,16h-0.5c-1.381,0-2.5-1.119-2.5-2.5s1.119-2.5,2.5-2.5c2.485,0,4.5-2.015,4.5-4.5	S61.985,2,59.5,2H57H32h-7H5.172C3.083,2,1.217,3.527,1.019,5.607C0.791,7.992,2.661,10,5,10h0.5C6.881,10,8,11.119,8,12.5	S6.881,15,5.5,15H4.172c-2.089,0-3.955,1.527-4.153,3.607C-0.209,20.992,1.661,23,4,23h19v-8h-3v-5h5v2h21v4H32v6h27.889	c1.451,0,2.781-0.981,3.054-2.406C63.311,17.677,61.851,16,60,16z"/><radialGradient id="7xfULB1DgBbjL0moiiHiHb" cx="30.367" cy="31.807" r="19.951" gradientTransform="matrix(1 0 0 -1 0 64)" gradientUnits="userSpaceOnUse"><stop offset=".167" stop-color="#f6e6c1"/><stop offset=".73" stop-color="#faedd0"/><stop offset="1" stop-color="#fdf0d5"/></radialGradient><path fill="url(#7xfULB1DgBbjL0moiiHiHb)" d="M60,50h-4c-1.66,0-3,1.34-3,3c0,0.83,0.34,1.58,0.88,2.12C54.42,55.66,55.17,56,56,56h1.15	c2.31,0.09,4.12,2.13,3.82,4.51C60.71,62.54,58.86,64,56.81,64H5.5c-2,0-3.6-1.67-3.5-3.69C2.1,58.42,3.8,57,5.7,57h3.8	c0.69,0,1.32-0.28,1.77-0.73C11.72,55.82,12,55.19,12,54.5c0-1.38-1.12-2.5-2.5-2.5H9c-2.34,0-4.21-2.02-3.98-4.4	C5.23,45.52,7.1,44,9.19,44H10c0.83,0,1.58-0.34,2.12-0.88c0.59-0.59,0.94-1.42,0.87-2.34C12.88,39.18,11.43,38,9.83,38H5.5	c-2,0-3.6-1.67-3.5-3.69C2.1,32.42,3.8,31,5.7,31H29v-1h26.5c2.63,0,4.73,2.26,4.48,4.94C59.76,37.28,57.66,39,55.31,39H54.5	c-1.47,0-2.64,1.26-2.49,2.76c0.13,1.3,1.32,2.24,2.63,2.24h5.25c1.45,0,2.78,0.98,3.05,2.41C63.31,48.32,61.85,50,60,50z"/><linearGradient id="7xfULB1DgBbjL0moiiHiHc" x1="32" x2="32" y1="-68.101" y2="40.23" gradientTransform="matrix(1 0 0 -1 0 64)" gradientUnits="userSpaceOnUse"><stop offset="0" stop-color="#51c0e6"/><stop offset="1" stop-color="#66dff3"/></linearGradient><path fill="url(#7xfULB1DgBbjL0moiiHiHc)" d="M56,22c0-8.836-10.745-17-24-17S8,13.164,8,22c0,5.756,4.561,10.799,11.402,13.618L22,45	c-1.266,0.459-3.87,1.762-5.083,2.38c-1.723,0.877-2.407,2.984-1.529,4.707s2.984,2.408,4.707,1.529	c7.455-3.797,16.355-3.797,23.811,0c0.509,0.26,1.052,0.383,1.586,0.383c1.274,0,2.503-0.699,3.121-1.912	c0.878-1.723,0.193-3.83-1.529-4.707C45.87,46.762,43.266,45.459,42,45l2.598-9.382C51.439,32.799,56,27.756,56,22z"/><path fill="#595959" d="M45.493,51.498c-0.152,0-0.308-0.035-0.453-0.109c-8.166-4.16-17.914-4.16-26.08,0	c-0.493,0.251-1.096,0.056-1.345-0.437c-0.251-0.492-0.056-1.095,0.437-1.345c8.734-4.451,19.162-4.451,27.896,0	c0.492,0.25,0.688,0.853,0.437,1.345C46.209,51.299,45.857,51.498,45.493,51.498z"/><path fill="#fff" d="M33,31c0-0.543,0-2,0-2s3.556-5.941,7-5.941S47,29,47,29s0,1.458,0,2c0,4.971-3.134,9-7,9	S33,35.971,33,31z"/><path fill="#fff" d="M17,31c0-0.543,0-2,0-2s3.556-4.882,7-4.882S31,29,31,29s0,1.458,0,2c0,4.971-3.134,9-7,9	S17,35.971,17,31z"/><linearGradient id="7xfULB1DgBbjL0moiiHiHd" x1="32" x2="32" y1="7.086" y2="45.803" gradientTransform="matrix(1 0 0 -1 0 64)" gradientUnits="userSpaceOnUse"><stop offset="0" stop-color="#51c0e6"/><stop offset="1" stop-color="#66dff3"/></linearGradient><path fill="url(#7xfULB1DgBbjL0moiiHiHd)" d="M25,49.36C25,44.588,28.134,34,32,34s7,10.588,7,15.36S35.866,58,32,58S25,54.132,25,49.36z"/><path fill="#595959" d="M38,28h4v5c0,1.105-0.895,2-2,2l0,0c-1.105,0-2-0.895-2-2V28z"/><path fill="#595959" d="M22,28h4v5c0,1.105-0.895,2-2,2l0,0c-1.105,0-2-0.895-2-2V28z"/><linearGradient id="7xfULB1DgBbjL0moiiHiHe" x1="40" x2="40" y1="31.069" y2="55.63" gradientTransform="matrix(1 0 0 -1 0 64)" gradientUnits="userSpaceOnUse"><stop offset="0" stop-color="#51c0e6"/><stop offset="1" stop-color="#66dff3"/></linearGradient><path fill="url(#7xfULB1DgBbjL0moiiHiHe)" d="M47,29H33c0.57-3.98,3.55-7,7-7S46.42,25.02,47,29z"/><linearGradient id="7xfULB1DgBbjL0moiiHiHf" x1="24" x2="24" y1="31.069" y2="55.63" gradientTransform="matrix(1 0 0 -1 0 64)" gradientUnits="userSpaceOnUse"><stop offset="0" stop-color="#51c0e6"/><stop offset="1" stop-color="#66dff3"/></linearGradient><path fill="url(#7xfULB1DgBbjL0moiiHiHf)" d="M31,29H17c0.57-3.98,3.55-7,7-7S30.42,25.02,31,29z"/><path fill="#fff" d="M14.707,10.425c-0.005,0.003-0.009,0.007-0.014,0.01C14.698,10.431,14.702,10.428,14.707,10.425 M14.82,10.34c-0.014,0.011-0.028,0.021-0.043,0.032C14.791,10.362,14.806,10.351,14.82,10.34 M25.26,5.722	c-4.01,0.876-7.586,2.503-10.428,4.609C17.675,8.226,21.249,6.599,25.26,5.722 M25.35,5.703c-0.015,0.003-0.03,0.007-0.045,0.01	C25.319,5.709,25.335,5.706,25.35,5.703 M25.468,5.678c-0.005,0.001-0.01,0.002-0.015,0.003C25.457,5.68,25.462,5.679,25.468,5.678"/><linearGradient id="7xfULB1DgBbjL0moiiHiHg" x1="-75" x2="-74" y1="3911.895" y2="3911.895" gradientTransform="rotate(-90 -215876.612 207883.857) scale(108.3314)" gradientUnits="userSpaceOnUse"><stop offset="0" stop-color="#6cc9ea"/><stop offset="1" stop-color="#7fe4f5"/></linearGradient><path fill="url(#7xfULB1DgBbjL0moiiHiHg)" d="M30.429,5.041c-1.708,0.083-3.369,0.301-4.962,0.637c-0.005,0.001-0.01,0.002-0.015,0.003	c-0.034,0.007-0.068,0.014-0.102,0.022c-0.015,0.003-0.03,0.007-0.045,0.01c-0.015,0.003-0.03,0.007-0.045,0.01	c-4.01,0.877-7.585,2.503-10.428,4.609c-0.004,0.003-0.008,0.006-0.013,0.009c-0.014,0.01-0.029,0.021-0.043,0.032	c-0.024,0.018-0.047,0.035-0.07,0.053c-0.005,0.003-0.009,0.007-0.014,0.01c-3.493,2.63-5.851,5.992-6.501,9.564h14.17	c1.309,0,2.5-0.94,2.63-2.24C25.139,16.26,23.97,15,22.5,15H22c-1.1,0-2-0.9-2-2c0-0.55,0.22-1.05,0.59-1.41	C20.95,11.219,21.45,11,22,11h8c1.85,0,3.31-1.68,2.94-3.591C32.7,6.16,31.66,5.25,30.429,5.041"/><path fill="#fff" d="M28.842,57.073C29.382,57.642,30.152,58,31,58h1C30.864,58,29.791,57.666,28.842,57.073 M38.73,51.744C37.892,55.356,35.196,58,32,58C35.199,58,37.892,55.356,38.73,51.744 M38.737,51.713	c-0.001,0.004-0.002,0.008-0.003,0.012C38.735,51.721,38.736,51.717,38.737,51.713"/><linearGradient id="7xfULB1DgBbjL0moiiHiHh" x1="-75" x2="-74" y1="3912.064" y2="3912.064" gradientTransform="rotate(-90 -215876.612 207883.857) scale(108.3314)" gradientUnits="userSpaceOnUse"><stop offset="0" stop-color="#64c6e9"/><stop offset="1" stop-color="#76e2f4"/></linearGradient><path fill="url(#7xfULB1DgBbjL0moiiHiHh)" d="M38.858,47.331C38.951,48.077,39,48.764,39,49.36l0,0C39,48.763,38.951,48.077,38.858,47.331 M38.85,47.269c0.002,0.019,0.005,0.039,0.007,0.058C38.855,47.308,38.852,47.289,38.85,47.269 M38.842,47.208	c0.001,0.01,0.003,0.02,0.004,0.031C38.845,47.229,38.843,47.219,38.842,47.208"/><linearGradient id="7xfULB1DgBbjL0moiiHiHi" x1="-75.03" x2="-74.03" y1="3912.035" y2="3912.035" gradientTransform="rotate(-90 -77137 74290.172) scale(38.7166)" gradientUnits="userSpaceOnUse"><stop offset="0" stop-color="#64c6e9"/><stop offset="1" stop-color="#76e2f4"/></linearGradient><path fill="url(#7xfULB1DgBbjL0moiiHiHi)" d="M38.46,45H34c-1.211,0-2.18,1.08-1.97,2.34c0.16,0.98,1.08,1.66,2.081,1.66H34.5	c0.83,0,1.5,0.67,1.5,1.5S35.33,52,34.5,52h-3.389c-1.451,0-2.781,0.981-3.051,2.41c-0.199,1.03,0.13,1.991,0.78,2.661	c0.001,0.001,0.001,0.001,0.002,0.002C29.791,57.666,30.864,58,32,58l0,0l0,0c3.196,0,5.892-2.643,6.73-6.256	c0.001-0.006,0.003-0.013,0.004-0.019c0.001-0.004,0.002-0.008,0.003-0.012C38.908,50.965,39,50.176,39,49.36	c0-0.596-0.049-1.283-0.142-2.029c0-0.001,0-0.002,0-0.004c-0.002-0.019-0.005-0.039-0.007-0.058	c-0.001-0.01-0.003-0.02-0.004-0.031c-0.001-0.01-0.003-0.02-0.004-0.031C38.751,46.514,38.623,45.77,38.46,45"/></svg>